# xmcd
#
# Track frame offsets:
#	150
#	42618
#	56313
#	69709
#	93782
#	115941
#	137798
#	175147
#	187857
#	209734
#	219941
#	240234
#	255190
#	278499
#	292343
#	315802
#	332319
#
# Disc length: 4646 seconds
#
# Revision: 1
# Processed by: cddbd v1.5.2PL0 Copyright (c) Steve Scherf et al.
# Submitted via: audiograbber 1.83.01
#
DISCID=eb122411
DTITLE=Lu and Tchelo - Prá começar... Ao Vivo no Alambique
DYEAR=2009
DGENRE=Latin
TTITLE0=Pode chorar - Parece castigo - Chora, me liga
TTITLE1=Paixão violenta
TTITLE2=Paixão do lado esquerdo
TTITLE3=200 por hora - Fogo de amor
TTITLE4=Ainda ntem chorei de saudade - Seu amor ainda é tudo - Fio de cabelo - 
TTITLE4=Boate azul
TTITLE5=Dia de te encontrar - Fim de semana - Fogo de amor
TTITLE6=Fogueira - Tem nada a ver - Coração apaixonado - Dessa vez eu me rendo
TTITLE7=Querendo te amar - Nova York
TTITLE8=Pout-pourri Gipsy Kings (Bamboleio - Volare - A mi manera)
TTITLE9=Galera coração - Any man of mine
TTITLE10=Country Roads - Bailão de rodeio - Galera felicidade
TTITLE11=Guantanamera - O meu sangue ferve por você
TTITLE12=Porque brigamos - Me apaixonei
TTITLE13=Uma história de amor
TTITLE14=Abra a janela - Chorando se foi - Prá lá de Bagdá
TTITLE15=Você é linda
TTITLE16=Faixa Bônus - Dor e paixão
EXTD=
EXTT0=
EXTT1=
EXTT2=
EXTT3=
EXTT4=
EXTT5=
EXTT6=
EXTT7=
EXTT8=
EXTT9=
EXTT10=
EXTT11=
EXTT12=
EXTT13=
EXTT14=
EXTT15=
EXTT16=
PLAYORDER=
